<svg width="50" height="50" viewBox="0 0 50 50" fill="none" xmlns="http://www.w3.org/2000/svg">
<path d="M15.4988 41.203L25.5182 12.4039L21.9007 11.1434L13.0017 40.3359V46.6591L15.4988 41.203Z" stroke="#002F4A" stroke-width="1.09121" stroke-miterlimit="10"/>
<path d="M36.8698 46.6591L36.9981 41.203L28.4907 11.1434L24.8716 12.4039L36.8698 46.6591Z" stroke="#002F4A" stroke-width="1.09121" stroke-miterlimit="10"/>
<path d="M29.459 12.693C29.4594 13.5364 29.2096 14.3609 28.7413 15.0623C28.2729 15.7638 27.6071 16.3106 26.828 16.6335C26.0489 16.9565 25.1915 17.0412 24.3643 16.8769C23.5371 16.7126 22.7771 16.3066 22.1806 15.7103C21.5841 15.1141 21.1779 14.3543 21.0132 13.5271C20.8485 12.7 20.9329 11.8426 21.2556 11.0633C21.5782 10.2841 22.1248 9.61805 22.826 9.14945C23.5272 8.68084 24.3517 8.43073 25.1951 8.43073C26.3257 8.43073 27.41 8.87973 28.2096 9.679C29.0091 10.4783 29.4586 11.5624 29.459 12.693Z" fill="#00A6FB" stroke="#002F4A" stroke-width="1.09121" stroke-miterlimit="10"/>
<path d="M36.9998 19.0128C33.7335 22.0322 29.4489 23.7092 25.0008 23.7092C20.5526 23.7092 16.268 22.0322 13.0017 19.0128" stroke="#002F4A" stroke-width="1.09121" stroke-miterlimit="10"/>
<path d="M25.1948 20.3024V25.7191" stroke="#002F4A" stroke-width="1.09121" stroke-miterlimit="10"/>
<path d="M25.1951 8.43072C25.6798 8.43007 26.1611 8.51221 26.6181 8.67359V4.81329C26.6248 4.62238 26.5929 4.43209 26.5244 4.25377C26.4559 4.07544 26.3522 3.91273 26.2195 3.77533C26.0868 3.63793 25.9278 3.52866 25.7519 3.45403C25.5761 3.3794 25.387 3.34094 25.196 3.34094C25.0049 3.34094 24.8159 3.3794 24.64 3.45403C24.4642 3.52866 24.3052 3.63793 24.1725 3.77533C24.0397 3.91273 23.936 4.07544 23.8676 4.25377C23.7991 4.43209 23.7672 4.62238 23.7738 4.81329V8.67359C24.2303 8.51237 24.711 8.43023 25.1951 8.43072Z" fill="#00A6FB" stroke="#002F4A" stroke-width="1.09121" stroke-miterlimit="10"/>
<path d="M18.846 35.4528C18.846 36.031 18.6746 36.5962 18.3533 37.0769C18.032 37.5576 17.5754 37.9323 17.0412 38.1535C16.507 38.3747 15.9192 38.4324 15.3521 38.3195C14.7851 38.2066 14.2643 37.928 13.8555 37.5191C13.4468 37.1101 13.1685 36.5891 13.056 36.022C12.9434 35.4549 13.0015 34.8671 13.223 34.333C13.4445 33.7989 13.8194 33.3425 14.3003 33.0216C14.7812 32.7006 15.3465 32.5294 15.9247 32.5298C16.3086 32.5296 16.6887 32.605 17.0433 32.7519C17.398 32.8987 17.7202 33.114 17.9915 33.3855C18.2628 33.657 18.478 33.9793 18.6246 34.3341C18.7712 34.6888 18.8465 35.069 18.846 35.4528Z" fill="#00A6FB" stroke="#002F4A" stroke-width="1.09121" stroke-miterlimit="10"/>
</svg>
