<svg width="51" height="50" viewBox="0 0 51 50" fill="none" xmlns="http://www.w3.org/2000/svg">
<path d="M42.2621 7.9519H8.73804V47.9999H42.2621V7.9519Z" fill="#00A6FB" stroke="#002F4A" stroke-width="1.15844" stroke-miterlimit="10"/>
<path d="M39.6165 7.93024H11.418V45.2946H39.6165V7.93024Z" fill="white" stroke="#002F4A" stroke-width="1.15844" stroke-miterlimit="10"/>
<path d="M14.7263 22.9372H36.2756" stroke="#002F4A" stroke-width="1.15844" stroke-miterlimit="10"/>
<path d="M22.6191 15.9412L24.5765 19.2658L30.3651 13.2502" stroke="#002F4A" stroke-width="1.15844" stroke-miterlimit="10"/>
<path d="M14.7263 30.1204H19.7705" stroke="#002F4A" stroke-width="1.15844" stroke-miterlimit="10"/>
<path d="M21.7551 30.1204H36.2756" stroke="#002F4A" stroke-width="1.15844" stroke-miterlimit="10"/>
<path d="M14.7263 26.2983H22.9807" stroke="#002F4A" stroke-width="1.15844" stroke-miterlimit="10"/>
<path d="M25.2722 26.2983H36.2756" stroke="#002F4A" stroke-width="1.15844" stroke-miterlimit="10"/>
<path d="M14.7263 33.7719H36.2756" stroke="#002F4A" stroke-width="1.15844" stroke-miterlimit="10"/>
<path d="M14.7263 40.955H19.7705" stroke="#002F4A" stroke-width="1.15844" stroke-miterlimit="10"/>
<path d="M21.7551 40.955H36.2756" stroke="#002F4A" stroke-width="1.15844" stroke-miterlimit="10"/>
<path d="M14.7263 37.1346H22.9807" stroke="#002F4A" stroke-width="1.15844" stroke-miterlimit="10"/>
<path d="M25.2722 37.1346H36.2756" stroke="#002F4A" stroke-width="1.15844" stroke-miterlimit="10"/>
<path d="M29.4664 6.12537C29.4664 6.07634 29.4755 6.02369 29.4755 5.97466C29.4755 4.92052 29.0567 3.90954 28.3113 3.16415C27.5659 2.41876 26.5549 2 25.5008 2C24.4467 2 23.4357 2.41876 22.6903 3.16415C21.9449 3.90954 21.5261 4.92052 21.5261 5.97466C21.5261 6.02369 21.5261 6.07634 21.5261 6.12537H18.7771V10.4033H32.2245V6.12537H29.4664Z" fill="#00A6FB" stroke="#002F4A" stroke-width="1.15844" stroke-miterlimit="10"/>
</svg>
