<svg width="51" height="50" viewBox="0 0 51 50" fill="none" xmlns="http://www.w3.org/2000/svg">
<path d="M27.9086 20.2472L27.0694 10.0746H25.5007H23.932L23.0928 20.2472H27.9086Z" fill="#00A6FB" stroke="#006494" stroke-width="1.04578" stroke-miterlimit="10"/>
<path d="M46.4086 36.9256C46.4086 30.1821 43.5811 23.3337 38.0637 18.8391C36.6982 17.7296 35.1925 16.8048 33.5855 16.0886L33.1216 13.1217C31.2466 12.2435 29.2395 11.6808 27.1813 11.4563L27.9041 20.2472H23.0932L23.8193 11.4285C20.1804 11.7547 17.8774 13.1217 17.8774 13.1217L17.3463 16.0853C11.8272 18.6195 7.81785 23.5255 5.93282 28.9396C5.04373 31.508 4.59322 34.2077 4.60018 36.9256H46.4152" stroke="#006494" stroke-width="1.04578" stroke-miterlimit="10"/>
<path d="M33.1265 13.1218L34.7263 23.4468" stroke="#006494" stroke-width="1.04578" stroke-miterlimit="10"/>
<path d="M16.0298 23.4468L17.8738 13.1218" stroke="#006494" stroke-width="1.04578" stroke-miterlimit="10"/>
<path d="M9.47318 27.294C9.47318 27.294 7.35538 31.0133 7.5193 33.8507H20.5933" stroke="#006494" stroke-width="1.04578" stroke-miterlimit="10"/>
<path d="M46.6427 36.9257H4.3868C4.3868 36.9257 2.4821 36.9961 2.50013 39.9253H48.4999C48.5179 36.9912 46.6427 36.9257 46.6427 36.9257Z" stroke="#006494" stroke-width="1.04578" stroke-miterlimit="10"/>
</svg>
