<svg width="50" height="50" viewBox="0 0 50 50" fill="none" xmlns="http://www.w3.org/2000/svg">
<g clip-path="url(#clip0_28_165)">
<path d="M2.36987 35.406V22.2496L9.52359 16.2339L16.8083 22.2496V35.406H2.36987Z" fill="#00A6FB"/>
<path d="M16.8083 35.7757C16.7102 35.7757 16.6162 35.7368 16.5469 35.6674C16.4776 35.5981 16.4387 35.5041 16.4387 35.4061V22.4243L9.52649 16.7156L2.73948 22.4229V35.4061C2.73948 35.4546 2.72992 35.5027 2.71135 35.5475C2.69277 35.5924 2.66555 35.6331 2.63122 35.6674C2.5969 35.7018 2.55615 35.729 2.51131 35.7476C2.46647 35.7661 2.4184 35.7757 2.36986 35.7757C2.32132 35.7757 2.27326 35.7661 2.22842 35.7476C2.18357 35.729 2.14283 35.7018 2.1085 35.6674C2.07418 35.6331 2.04696 35.5924 2.02838 35.5475C2.00981 35.5027 2.00025 35.4546 2.00025 35.4061V22.2497C2.00012 22.1958 2.01192 22.1425 2.03482 22.0937C2.05771 22.0449 2.09113 22.0018 2.13267 21.9674L9.28639 15.9516C9.35279 15.8964 9.43646 15.8661 9.52286 15.8661C9.60925 15.8661 9.69292 15.8964 9.75932 15.9516L17.044 21.9674C17.0866 22.0029 17.1207 22.0474 17.1438 22.0978C17.167 22.1481 17.1786 22.203 17.1779 22.2584V35.4148C17.1756 35.5113 17.1357 35.6031 17.0666 35.6705C16.9975 35.738 16.9048 35.7757 16.8083 35.7757Z" fill="#002F4A"/>
<path d="M8.38557 25.1791H5.37769V28.187H8.38557V25.1791Z" fill="white"/>
<path d="M8.38581 28.5566H5.37793C5.2799 28.5566 5.18589 28.5177 5.11657 28.4483C5.04725 28.379 5.00831 28.285 5.00831 28.187V25.1791C5.00793 25.1303 5.0172 25.0819 5.03561 25.0368C5.05401 24.9916 5.08118 24.9505 5.11554 24.9159C5.1499 24.8812 5.19077 24.8537 5.23581 24.835C5.28084 24.8162 5.32915 24.8066 5.37793 24.8066H8.38581C8.48384 24.8066 8.57785 24.8455 8.64717 24.9148C8.71649 24.9842 8.75543 25.0782 8.75543 25.1762V28.1841C8.75601 28.2329 8.74687 28.2814 8.72853 28.3266C8.7102 28.3719 8.68304 28.4131 8.64864 28.4478C8.61424 28.4824 8.57329 28.5099 8.52817 28.5286C8.48304 28.5473 8.43465 28.5568 8.38581 28.5566ZM5.74755 27.8174H8.01619V25.5487H5.74755V27.8174Z" fill="#002F4A"/>
<path d="M13.8004 25.1791H10.7925V28.187H13.8004V25.1791Z" fill="white"/>
<path d="M13.8004 28.5566H10.7925C10.7439 28.5568 10.6957 28.5474 10.6508 28.5289C10.6059 28.5104 10.5651 28.4831 10.5307 28.4488C10.4963 28.4144 10.4691 28.3736 10.4506 28.3287C10.4321 28.2837 10.4227 28.2356 10.4229 28.187V25.1791C10.4225 25.1303 10.4318 25.0819 10.4502 25.0368C10.4686 24.9916 10.4957 24.9505 10.5301 24.9159C10.5644 24.8812 10.6053 24.8537 10.6504 24.835C10.6954 24.8162 10.7437 24.8066 10.7925 24.8066H13.8004C13.8489 24.8066 13.897 24.8161 13.9418 24.8347C13.9867 24.8533 14.0274 24.8805 14.0617 24.9148C14.096 24.9492 14.1233 24.9899 14.1418 25.0348C14.1604 25.0796 14.17 25.1277 14.17 25.1762V28.1841C14.1704 28.2329 14.1611 28.2812 14.1427 28.3264C14.1243 28.3716 14.0971 28.4127 14.0628 28.4473C14.0284 28.482 13.9875 28.5094 13.9425 28.5282C13.8974 28.547 13.8491 28.5566 13.8004 28.5566ZM11.1679 27.8174H13.4307V25.5487H11.1679V27.8174Z" fill="#002F4A"/>
<path d="M11.3935 31.1948H7.78467V35.4061H11.3935V31.1948Z" fill="#CFF1FF"/>
<path d="M11.3935 35.7757C11.3449 35.7759 11.2967 35.7665 11.2516 35.748C11.2066 35.7295 11.1657 35.7023 11.1312 35.668C11.0968 35.6336 11.0694 35.5928 11.0507 35.5479C11.0321 35.5029 11.0225 35.4547 11.0225 35.4061V31.5658H8.15428V35.4061C8.15428 35.4546 8.14472 35.5027 8.12614 35.5475C8.10757 35.5924 8.08034 35.6331 8.04602 35.6674C8.0117 35.7018 7.97095 35.729 7.9261 35.7476C7.88126 35.7661 7.8332 35.7757 7.78466 35.7757C7.73612 35.7757 7.68806 35.7661 7.64321 35.7476C7.59837 35.729 7.55762 35.7018 7.5233 35.6674C7.48898 35.6331 7.46175 35.5924 7.44317 35.5475C7.4246 35.5027 7.41504 35.4546 7.41504 35.4061V31.1948C7.41504 31.0967 7.45398 31.0027 7.5233 30.9334C7.59261 30.8641 7.68663 30.8251 7.78466 30.8251H11.3935C11.4916 30.8251 11.5856 30.8641 11.6549 30.9334C11.7242 31.0027 11.7632 31.0967 11.7632 31.1948V35.4061C11.7633 35.4547 11.7539 35.5028 11.7354 35.5478C11.7169 35.5927 11.6897 35.6335 11.6553 35.6679C11.621 35.7022 11.5801 35.7294 11.5352 35.748C11.4903 35.7665 11.4421 35.7759 11.3935 35.7757Z" fill="#002F4A"/>
<path d="M33.1924 35.406V22.2496L40.3461 16.2339L47.6308 22.2496V35.406H33.1924Z" fill="#CFF1FF"/>
<path d="M47.6308 35.7757C47.5328 35.7757 47.4387 35.7368 47.3694 35.6674C47.3001 35.5981 47.2612 35.5041 47.2612 35.4061V22.4243L40.349 16.7156L33.5634 22.4229V35.4061C33.5575 35.5003 33.516 35.5887 33.4471 35.6533C33.3783 35.718 33.2875 35.7539 33.1931 35.7539C33.0987 35.7539 33.0079 35.718 32.9391 35.6533C32.8703 35.5887 32.8287 35.5003 32.8228 35.4061V22.2497C32.8226 22.1958 32.8344 22.1425 32.8573 22.0937C32.8802 22.0449 32.9136 22.0018 32.9552 21.9674L40.1089 15.9516C40.1753 15.8964 40.259 15.8661 40.3454 15.8661C40.4318 15.8661 40.5154 15.8964 40.5818 15.9516L47.8665 21.9674C47.9091 22.0029 47.9432 22.0474 47.9663 22.0978C47.9895 22.1481 48.0011 22.203 48.0004 22.2584V35.4148C47.9985 35.5114 47.9587 35.6034 47.8895 35.671C47.8204 35.7385 47.7274 35.7761 47.6308 35.7757Z" fill="#002F4A"/>
<path d="M39.2081 25.1791H36.2002V28.187H39.2081V25.1791Z" fill="white"/>
<path d="M39.2098 28.5566H36.1975C36.0995 28.5566 36.0055 28.5177 35.9362 28.4483C35.8668 28.379 35.8279 28.285 35.8279 28.187V25.1791C35.8275 25.1303 35.8368 25.0819 35.8552 25.0368C35.8736 24.9916 35.9008 24.9505 35.9351 24.9159C35.9695 24.8812 36.0104 24.8537 36.0554 24.835C36.1004 24.8162 36.1487 24.8066 36.1975 24.8066H39.2098C39.3078 24.8066 39.4018 24.8455 39.4711 24.9148C39.5404 24.9842 39.5794 25.0782 39.5794 25.1762V28.1841C39.5798 28.2329 39.5705 28.2812 39.5521 28.3264C39.5337 28.3716 39.5065 28.4127 39.4722 28.4473C39.4378 28.482 39.3969 28.5094 39.3519 28.5282C39.3068 28.547 39.2585 28.5566 39.2098 28.5566ZM36.5715 27.8174H38.8387V25.5487H36.5715V27.8174Z" fill="#002F4A"/>
<path d="M44.6229 25.1791H41.615V28.187H44.6229V25.1791Z" fill="white"/>
<path d="M44.6229 28.5565H41.615C41.5664 28.5565 41.5184 28.5469 41.4735 28.5284C41.4287 28.5098 41.3879 28.4826 41.3536 28.4482C41.3193 28.4139 41.2921 28.3732 41.2735 28.3283C41.2549 28.2835 41.2454 28.2354 41.2454 28.1869V25.179C41.2454 25.1305 41.2549 25.0824 41.2735 25.0376C41.2921 24.9927 41.3193 24.952 41.3536 24.9176C41.3879 24.8833 41.4287 24.8561 41.4735 24.8375C41.5184 24.8189 41.5664 24.8094 41.615 24.8094H44.6229C44.7209 24.8094 44.8149 24.8483 44.8842 24.9176C44.9535 24.987 44.9925 25.081 44.9925 25.179V28.1869C44.9927 28.2355 44.9832 28.2836 44.9647 28.3286C44.9462 28.3735 44.919 28.4143 44.8846 28.4487C44.8503 28.483 44.8095 28.5103 44.7645 28.5288C44.7196 28.5473 44.6715 28.5567 44.6229 28.5565ZM41.9846 27.8173H44.2532V25.5486H41.9846V27.8173Z" fill="#002F4A"/>
<path d="M42.2161 31.1948H38.6072V35.4061H42.2161V31.1948Z" fill="#CFF1FF"/>
<path d="M42.2175 35.7757C42.1688 35.7759 42.1206 35.7665 42.0756 35.748C42.0306 35.7295 41.9897 35.7023 41.9552 35.668C41.9207 35.6336 41.8934 35.5928 41.8747 35.5479C41.856 35.5029 41.8464 35.4547 41.8464 35.4061V31.5658H38.9768V35.4061C38.9768 35.5041 38.9378 35.5981 38.8685 35.6674C38.7992 35.7368 38.7052 35.7757 38.6072 35.7757C38.5091 35.7757 38.4151 35.7368 38.3458 35.6674C38.2765 35.5981 38.2375 35.5041 38.2375 35.4061V31.1948C38.2375 31.0967 38.2765 31.0027 38.3458 30.9334C38.4151 30.8641 38.5091 30.8251 38.6072 30.8251H42.2175C42.3155 30.8251 42.4095 30.8641 42.4789 30.9334C42.5482 31.0027 42.5871 31.0967 42.5871 31.1948V35.4061C42.5871 35.5041 42.5482 35.5981 42.4789 35.6674C42.4095 35.7368 42.3155 35.7757 42.2175 35.7757Z" fill="#002F4A"/>
<path d="M15.3691 40.8311V17.1944L24.9137 9.16907L34.6315 17.1944V40.8311H15.3691Z" fill="white"/>
<path d="M34.6315 41.2006C34.5335 41.2006 34.4395 41.1617 34.3702 41.0924C34.3009 41.0231 34.2619 40.9291 34.2619 40.831V17.369L24.9152 9.65647L15.7475 17.369V40.831C15.7416 40.9252 15.7 41.0137 15.6312 41.0783C15.5624 41.1429 15.4716 41.1789 15.3772 41.1789C15.2828 41.1789 15.1919 41.1429 15.1231 41.0783C15.0543 41.0137 15.0127 40.9252 15.0068 40.831V17.1944C15.0067 17.1404 15.0185 17.0872 15.0414 17.0384C15.0643 16.9896 15.0977 16.9464 15.1393 16.9121L24.6751 8.88667C24.7418 8.83129 24.8257 8.80096 24.9123 8.80096C24.999 8.80096 25.0829 8.83129 25.1495 8.88667L34.8673 16.9121C34.9098 16.9475 34.9439 16.9921 34.9671 17.0424C34.9903 17.0928 35.0019 17.1477 35.0012 17.2031V40.831C35.0012 40.9291 34.9622 41.0231 34.8929 41.0924C34.8236 41.1617 34.7296 41.2006 34.6315 41.2006Z" fill="#002F4A"/>
<path d="M23.396 27.1872H19.3826V31.2006H23.396V27.1872Z" fill="#CFF1FF"/>
<path d="M23.3916 31.5702H19.3826C19.2845 31.5702 19.1905 31.5312 19.1212 31.4619C19.0519 31.3926 19.0129 31.2986 19.0129 31.2005V27.1871C19.0129 27.0891 19.0519 26.9951 19.1212 26.9258C19.1905 26.8564 19.2845 26.8175 19.3826 26.8175H23.3916C23.4896 26.8175 23.5837 26.8564 23.653 26.9258C23.7223 26.9951 23.7612 27.0891 23.7612 27.1871V31.2005C23.7612 31.2986 23.7223 31.3926 23.653 31.4619C23.5837 31.5312 23.4896 31.5702 23.3916 31.5702ZM19.7536 30.8309H23.0264V27.5567H19.7536V30.8309Z" fill="#002F4A"/>
<path d="M30.6196 27.1872H26.6062V31.2006H30.6196V27.1872Z" fill="#CFF1FF"/>
<path d="M30.6179 31.5702H26.6059C26.5079 31.5702 26.4139 31.5312 26.3446 31.4619C26.2753 31.3926 26.2363 31.2986 26.2363 31.2005V27.1871C26.2363 27.0891 26.2753 26.9951 26.3446 26.9258C26.4139 26.8564 26.5079 26.8175 26.6059 26.8175H30.6179C30.7159 26.8175 30.81 26.8564 30.8793 26.9258C30.9486 26.9951 30.9875 27.0891 30.9875 27.1871V31.2005C30.9875 31.2986 30.9486 31.3926 30.8793 31.4619C30.81 31.5312 30.7159 31.5702 30.6179 31.5702ZM26.9799 30.8309H30.2527V27.5567H26.9756L26.9799 30.8309Z" fill="#002F4A"/>
<path d="M23.396 19.7744H19.3826V23.7878H23.396V19.7744Z" fill="#CFF1FF"/>
<path d="M23.3916 24.1575H19.3826C19.2845 24.1575 19.1905 24.1186 19.1212 24.0492C19.0519 23.9799 19.0129 23.8859 19.0129 23.7879V19.7745C19.0129 19.6764 19.0519 19.5824 19.1212 19.5131C19.1905 19.4438 19.2845 19.4048 19.3826 19.4048H23.3916C23.4896 19.4048 23.5837 19.4438 23.653 19.5131C23.7223 19.5824 23.7612 19.6764 23.7612 19.7745V23.7879C23.7612 23.8859 23.7223 23.9799 23.653 24.0492C23.5837 24.1186 23.4896 24.1575 23.3916 24.1575ZM19.7536 23.4183H23.0264V20.1499H19.7536V23.4183Z" fill="#002F4A"/>
<path d="M30.6196 19.7744H26.6062V23.7878H30.6196V19.7744Z" fill="#CFF1FF"/>
<path d="M30.6179 24.1575H26.6059C26.5079 24.1575 26.4139 24.1186 26.3446 24.0492C26.2753 23.9799 26.2363 23.8859 26.2363 23.7879V19.7745C26.2363 19.6764 26.2753 19.5824 26.3446 19.5131C26.4139 19.4438 26.5079 19.4048 26.6059 19.4048H30.6179C30.7159 19.4048 30.81 19.4438 30.8793 19.5131C30.9486 19.5824 30.9875 19.6764 30.9875 19.7745V23.7879C30.9875 23.8859 30.9486 23.9799 30.8793 24.0492C30.81 24.1186 30.7159 24.1575 30.6179 24.1575ZM26.9799 23.4183H30.2527V20.1499H26.9756L26.9799 23.4183Z" fill="#002F4A"/>
<path d="M27.4082 35.2125H22.593V40.831H27.4082V35.2125Z" fill="#CFF1FF"/>
<path d="M27.408 41.2007C27.31 41.2007 27.216 41.1618 27.1466 41.0925C27.0773 41.0232 27.0384 40.9292 27.0384 40.8311V35.5837H22.9638V40.8311C22.9638 40.9292 22.9249 41.0232 22.8556 41.0925C22.7863 41.1618 22.6923 41.2007 22.5942 41.2007C22.4962 41.2007 22.4022 41.1618 22.3329 41.0925C22.2636 41.0232 22.2246 40.9292 22.2246 40.8311V35.2126C22.2246 35.1146 22.2636 35.0206 22.3329 34.9513C22.4022 34.882 22.4962 34.843 22.5942 34.843H27.408C27.506 34.843 27.6 34.882 27.6694 34.9513C27.7387 35.0206 27.7776 35.1146 27.7776 35.2126V40.8311C27.7776 40.9292 27.7387 41.0232 27.6694 41.0925C27.6 41.1618 27.506 41.2007 27.408 41.2007Z" fill="#002F4A"/>
</g>
<defs>
<clipPath id="clip0_28_165">
<rect width="46" height="32.4013" fill="white" transform="translate(2 8.79938)"/>
</clipPath>
</defs>
</svg>
