<svg width="96" height="16" viewBox="0 0 96 16" fill="none" xmlns="http://www.w3.org/2000/svg">
<g clip-path="url(#clip0_711_334)">
<path d="M3.61212 15.443C3.22612 15.641 2.78812 15.294 2.86612 14.851L3.69612 10.121L0.173118 6.76501C-0.155882 6.45101 0.0151183 5.87701 0.456118 5.81501L5.35412 5.11901L7.53812 0.792012C7.73512 0.402012 8.26812 0.402012 8.46512 0.792012L10.6491 5.11901L15.5471 5.81501C15.9881 5.87701 16.1591 6.45101 15.8291 6.76501L12.3071 10.121L13.1371 14.851C13.2151 15.294 12.7771 15.641 12.3911 15.443L8.00012 13.187L3.61212 15.443Z" fill="#FFD600"/>
</g>
<g clip-path="url(#clip1_711_334)">
<path d="M23.6121 15.443C23.2261 15.641 22.7881 15.294 22.8661 14.851L23.6961 10.121L20.1731 6.76501C19.8441 6.45101 20.0151 5.87701 20.4561 5.81501L25.3541 5.11901L27.5381 0.792012C27.7351 0.402012 28.2681 0.402012 28.4651 0.792012L30.6491 5.11901L35.5471 5.81501C35.9881 5.87701 36.1591 6.45101 35.8291 6.76501L32.3071 10.121L33.1371 14.851C33.2151 15.294 32.7771 15.641 32.3911 15.443L28.0001 13.187L23.6121 15.443Z" fill="#FFD600"/>
</g>
<g clip-path="url(#clip2_711_334)">
<path d="M43.6121 15.443C43.2261 15.641 42.7881 15.294 42.8661 14.851L43.6961 10.121L40.1731 6.76501C39.8441 6.45101 40.0151 5.87701 40.4561 5.81501L45.3541 5.11901L47.5381 0.792012C47.7351 0.402012 48.2681 0.402012 48.4651 0.792012L50.6491 5.11901L55.5471 5.81501C55.9881 5.87701 56.1591 6.45101 55.8291 6.76501L52.3071 10.121L53.1371 14.851C53.2151 15.294 52.7771 15.641 52.3911 15.443L48.0001 13.187L43.6121 15.443Z" fill="#FFD600"/>
</g>
<g clip-path="url(#clip3_711_334)">
<path d="M63.6121 15.443C63.2261 15.641 62.7881 15.294 62.8661 14.851L63.6961 10.121L60.1731 6.76501C59.8441 6.45101 60.0151 5.87701 60.4561 5.81501L65.3541 5.11901L67.5381 0.792012C67.7351 0.402012 68.2681 0.402012 68.4651 0.792012L70.6491 5.11901L75.5471 5.81501C75.9881 5.87701 76.1591 6.45101 75.8291 6.76501L72.3071 10.121L73.1371 14.851C73.2151 15.294 72.7771 15.641 72.3911 15.443L68.0001 13.187L63.6121 15.443Z" fill="#FFD600"/>
</g>
<g clip-path="url(#clip4_711_334)">
<path d="M83.6121 15.443C83.2261 15.641 82.7881 15.294 82.8661 14.851L83.6961 10.121L80.1731 6.76501C79.8441 6.45101 80.0151 5.87701 80.4561 5.81501L85.3541 5.11901L87.5381 0.792012C87.7351 0.402012 88.2681 0.402012 88.4651 0.792012L90.6491 5.11901L95.5471 5.81501C95.9881 5.87701 96.1591 6.45101 95.8291 6.76501L92.3071 10.121L93.1371 14.851C93.2151 15.294 92.7771 15.641 92.3911 15.443L88.0001 13.187L83.6121 15.443Z" fill="#FFD600"/>
</g>
<defs>
<clipPath id="clip0_711_334">
<rect width="16" height="16" fill="white"/>
</clipPath>
<clipPath id="clip1_711_334">
<rect width="16" height="16" fill="white" transform="translate(20)"/>
</clipPath>
<clipPath id="clip2_711_334">
<rect width="16" height="16" fill="white" transform="translate(40)"/>
</clipPath>
<clipPath id="clip3_711_334">
<rect width="16" height="16" fill="white" transform="translate(60)"/>
</clipPath>
<clipPath id="clip4_711_334">
<rect width="16" height="16" fill="white" transform="translate(80)"/>
</clipPath>
</defs>
</svg>
