<svg width="147" height="48" viewBox="0 0 147 48" fill="none" xmlns="http://www.w3.org/2000/svg">
<path fill-rule="evenodd" clip-rule="evenodd" d="M45.774 1.29924C46.0727 1.00294 46.5806 1.2145 46.5806 1.63522V47.2681C46.5806 47.5295 46.3687 47.7414 46.1073 47.7414H0.474212C0.0535281 47.7414 -0.158054 47.2335 0.138173 46.9348L22.381 24.5059L45.774 1.29924ZM38.0043 22.5522C38.0043 22.1258 37.4848 21.9169 37.1896 22.2245L29.8628 29.8592L22.3535 37.3685C22.0553 37.6667 22.2665 38.1765 22.6881 38.1765H37.5311C37.7925 38.1765 38.0043 37.9646 38.0043 37.7032V22.5522ZM8.98612 44.6668C8.98612 44.4386 8.61769 44.2536 8.16321 44.2536C7.70874 44.2536 7.34031 44.4386 7.34031 44.6668V46.6639H8.98612V44.6668ZM12.6276 44.6668C12.6276 44.4386 12.2592 44.2536 11.8047 44.2536C11.3502 44.2536 10.9818 44.4386 10.9818 44.6668V46.6639H12.6276V44.6668ZM15.4462 44.2536C15.9007 44.2536 16.2691 44.4386 16.2691 44.6668V46.6639H14.6233V44.6668C14.6233 44.4386 14.9918 44.2536 15.4462 44.2536ZM19.9106 44.6668C19.9106 44.4386 19.5422 44.2536 19.0877 44.2536C18.6333 44.2536 18.2648 44.4386 18.2648 44.6668V46.6639H19.9106V44.6668ZM22.7292 44.2536C23.1837 44.2536 23.5521 44.4386 23.5521 44.6668V46.6639H21.9063V44.6668C21.9063 44.4386 22.2748 44.2536 22.7292 44.2536ZM27.1937 44.6668C27.1937 44.4386 26.8252 44.2536 26.3707 44.2536C25.9163 44.2536 25.5478 44.4386 25.5478 44.6668V46.6639H27.1937V44.6668ZM30.0123 44.2536C30.4667 44.2536 30.8352 44.4386 30.8352 44.6668V46.6639H29.1894V44.6668C29.1894 44.4386 29.5578 44.2536 30.0123 44.2536ZM34.4767 44.6668C34.4767 44.4386 34.1082 44.2536 33.6538 44.2536C33.1993 44.2536 32.8309 44.4386 32.8309 44.6668V46.6639H34.4767V44.6668ZM37.2953 44.2536C37.7497 44.2536 38.1182 44.4386 38.1182 44.6668V46.6639H36.4724V44.6668C36.4724 44.4386 36.8408 44.2536 37.2953 44.2536ZM41.7597 44.6668C41.7597 44.4386 41.3912 44.2536 40.9368 44.2536C40.4823 44.2536 40.1139 44.4386 40.1139 44.6668V46.6639H41.7597V44.6668Z" fill="white"/>
<path d="M54.4018 12.1896C54.1245 12.1896 53.8997 11.9648 53.8997 11.6874V0.666519C53.8997 0.38921 54.1245 0.164406 54.4018 0.164406H59.0764C59.9665 0.164406 60.7454 0.326856 61.413 0.651754C62.0806 0.976653 62.5998 1.44443 62.9707 2.05508C63.3416 2.66573 63.527 3.39773 63.527 4.25108C63.527 5.11226 63.3357 5.83838 62.9531 6.42946C62.5744 7.02054 62.0415 7.46679 61.3544 7.7682C60.6712 8.06961 59.8728 8.22032 58.9593 8.22032H56.3694C56.0921 8.22032 55.8673 7.99552 55.8673 7.71821V6.18588C55.8673 5.90857 56.0921 5.68376 56.3694 5.68376H58.3034C58.686 5.68376 59.012 5.63679 59.2814 5.54284C59.5546 5.44498 59.7635 5.29036 59.908 5.07898C60.0563 4.8676 60.1305 4.59164 60.1305 4.25108C60.1305 3.90661 60.0563 3.62673 59.908 3.41143C59.7635 3.19222 59.5546 3.03173 59.2814 2.92996C59.012 2.82427 58.686 2.77142 58.3034 2.77142H57.6577C57.3804 2.77142 57.1556 2.99623 57.1556 3.27353V11.6874C57.1556 11.9648 56.9308 12.1896 56.6535 12.1896H54.4018ZM60.6283 6.6702C60.8123 6.6702 60.9816 6.7709 61.0695 6.93263L63.5222 11.4478C63.704 11.7823 63.4618 12.1896 63.081 12.1896H60.6902C60.5043 12.1896 60.3337 12.0869 60.2466 11.9228L57.8513 7.40762C57.6739 7.0732 57.9163 6.6702 58.2949 6.6702H60.6283Z" fill="white"/>
<path d="M76.5333 6.17698C76.5333 7.51572 76.2737 8.64503 75.7544 9.56493C75.2352 10.4809 74.5344 11.1757 73.6521 11.6494C72.7698 12.1191 71.786 12.354 70.7007 12.354C69.6075 12.354 68.6198 12.1171 67.7375 11.6435C66.8591 11.1659 66.1603 10.4692 65.641 9.55318C65.1257 8.63329 64.868 7.50789 64.868 6.17698C64.868 4.83824 65.1257 3.71089 65.641 2.79491C66.1603 1.87502 66.8591 1.1802 67.7375 0.71047C68.6198 0.236824 69.6075 0 70.7007 0C71.786 0 72.7698 0.236824 73.6521 0.71047C74.5344 1.1802 75.2352 1.87502 75.7544 2.79491C76.2737 3.71089 76.5333 4.83824 76.5333 6.17698ZM73.1836 6.17698C73.1836 5.45673 73.088 4.84999 72.8967 4.35677C72.7093 3.85964 72.4301 3.48385 72.0593 3.22941C71.6923 2.97106 71.2394 2.84188 70.7007 2.84188C70.1619 2.84188 69.7071 2.97106 69.3362 3.22941C68.9692 3.48385 68.6901 3.85964 68.4988 4.35677C68.3114 4.84999 68.2177 5.45673 68.2177 6.17698C68.2177 6.89724 68.3114 7.50594 68.4988 8.00307C68.6901 8.49629 68.9692 8.87207 69.3362 9.13043C69.7071 9.38486 70.1619 9.51208 70.7007 9.51208C71.2394 9.51208 71.6923 9.38486 72.0593 9.13043C72.4301 8.87207 72.7093 8.49629 72.8967 8.00307C73.088 7.50594 73.1836 6.89724 73.1836 6.17698Z" fill="white"/>
<path d="M78.0398 0.666519C78.0398 0.38921 78.2646 0.164406 78.5419 0.164406H81.7551C81.959 0.164406 82.1426 0.287666 82.2198 0.476337L84.853 6.91049C84.8691 6.94983 84.9074 6.97553 84.9499 6.97553C84.9924 6.97553 85.0307 6.94983 85.0468 6.91049L87.68 0.476337C87.7572 0.287666 87.9408 0.164406 88.1447 0.164406H91.3579C91.6352 0.164406 91.86 0.38921 91.86 0.666519V11.6874C91.86 11.9648 91.6352 12.1896 91.3579 12.1896H89.1764C88.8991 12.1896 88.6743 11.9648 88.6743 11.6874V5.29317C88.6743 5.26243 88.6494 5.23752 88.6187 5.23752C88.5957 5.23752 88.5752 5.2516 88.5668 5.27297L86.0349 11.7757C85.9597 11.9686 85.774 12.0956 85.567 12.0956H84.3337C84.1262 12.0956 83.9402 11.9681 83.8654 11.7746L81.3329 5.22609C81.3246 5.20467 81.304 5.19055 81.281 5.19055C81.2503 5.19055 81.2254 5.21544 81.2254 5.24614V11.6874C81.2254 11.9648 81.0006 12.1896 80.7233 12.1896H78.5419C78.2646 12.1896 78.0398 11.9648 78.0398 11.6874V0.666519Z" fill="white"/>
<path d="M96.6261 11.8322C96.5622 12.0444 96.3669 12.1896 96.1453 12.1896H93.6988C93.3569 12.1896 93.1149 11.8552 93.2219 11.5304L96.85 0.509511C96.9178 0.303571 97.1101 0.164406 97.3269 0.164406H101.051C101.268 0.164406 101.46 0.303571 101.528 0.509512L105.156 11.5304C105.263 11.8552 105.021 12.1896 104.679 12.1896H102.232C102.011 12.1896 101.816 12.0444 101.752 11.8322L99.2492 3.52088C99.2412 3.49425 99.2167 3.47602 99.1889 3.47602C99.161 3.47602 99.1365 3.49425 99.1285 3.52088L96.6261 11.8322ZM95.8626 7.94737C95.8626 7.67007 96.0874 7.44526 96.3647 7.44526H101.966C102.243 7.44526 102.468 7.67006 102.468 7.94737V9.38576C102.468 9.66306 102.243 9.88787 101.966 9.88787H96.3647C96.0874 9.88787 95.8626 9.66307 95.8626 9.38576V7.94737Z" fill="white"/>
<path d="M116.403 0.164406C116.68 0.164406 116.905 0.38921 116.905 0.666519V11.6874C116.905 11.9648 116.68 12.1896 116.403 12.1896H114.452C114.287 12.1896 114.132 12.108 114.038 11.9715L109.868 5.89165C109.859 5.87914 109.845 5.87166 109.83 5.87166C109.805 5.87166 109.784 5.89227 109.784 5.91769V11.6874C109.784 11.9648 109.559 12.1896 109.282 12.1896H107.03C106.753 12.1896 106.528 11.9648 106.528 11.6874V0.666519C106.528 0.38921 106.753 0.164406 107.03 0.164406H109.026C109.192 0.164406 109.348 0.247022 109.441 0.384944L113.537 6.43193C113.548 6.44875 113.567 6.45882 113.588 6.45882C113.622 6.45882 113.649 6.43141 113.649 6.3976V0.666518C113.649 0.389209 113.874 0.164406 114.151 0.164406H116.403Z" fill="white"/>
<path d="M57.5214 25.4445C57.4576 25.6568 57.2622 25.8021 57.0405 25.8021H54.5932C54.2514 25.8021 54.0095 25.468 54.1162 25.1432L57.7456 14.0994C57.8133 13.8933 58.0057 13.754 58.2226 13.754H61.9469C62.1638 13.754 62.3562 13.8933 62.4239 14.0994L66.0533 25.1432C66.16 25.468 65.9181 25.8021 65.5763 25.8021H63.129C62.9073 25.8021 62.7119 25.6568 62.6481 25.4445L60.1451 17.1168C60.1371 17.0902 60.1126 17.072 60.0847 17.072C60.0569 17.072 60.0324 17.0902 60.0244 17.1168L57.5214 25.4445ZM56.7579 21.5509C56.7579 21.2736 56.9827 21.0488 57.26 21.0488H62.8626C63.1399 21.0488 63.3647 21.2736 63.3647 21.5509V22.9939C63.3647 23.2712 63.1399 23.496 62.8626 23.496H57.26C56.9827 23.496 56.7579 23.2712 56.7579 22.9939V21.5509Z" fill="white"/>
<path d="M67.9273 25.8021C67.6499 25.8021 67.4251 25.5773 67.4251 25.3V14.2562C67.4251 13.9788 67.6499 13.754 67.9273 13.754H70.1796C70.4569 13.754 70.6817 13.9788 70.6817 14.2562V22.6645C70.6817 22.9418 70.9065 23.1666 71.1838 23.1666H75.0292C75.3065 23.1666 75.5314 23.3914 75.5314 23.6687V25.3C75.5314 25.5773 75.3065 25.8021 75.0292 25.8021H67.9273Z" fill="white"/>
<path d="M80.0712 25.4445C80.0074 25.6568 79.812 25.8021 79.5903 25.8021H77.143C76.8012 25.8021 76.5593 25.468 76.666 25.1432L80.2953 14.0994C80.3631 13.8933 80.5555 13.754 80.7724 13.754H84.4967C84.7136 13.754 84.906 13.8933 84.9737 14.0994L88.6031 25.1432C88.7098 25.468 88.4679 25.8021 88.1261 25.8021H85.6787C85.4571 25.8021 85.2617 25.6568 85.1979 25.4445L82.6949 17.1168C82.6869 17.0902 82.6623 17.072 82.6345 17.072C82.6067 17.072 82.5822 17.0902 82.5742 17.1168L80.0712 25.4445ZM79.3077 21.5509C79.3077 21.2736 79.5325 21.0488 79.8098 21.0488H85.4124C85.6897 21.0488 85.9145 21.2736 85.9145 21.5509V22.9939C85.9145 23.2712 85.6897 23.496 85.4124 23.496H79.8098C79.5325 23.496 79.3077 23.2712 79.3077 22.9939V21.5509Z" fill="white"/>
<path d="M88.635 16.3896C88.3577 16.3896 88.1329 16.1648 88.1329 15.8874V14.2562C88.1329 13.9788 88.3577 13.754 88.635 13.754H98.0564C98.3337 13.754 98.5585 13.9788 98.5585 14.2562V15.8874C98.5585 16.1648 98.3337 16.3896 98.0564 16.3896H95.4526C95.1753 16.3896 94.9505 16.6144 94.9505 16.8917V25.3C94.9505 25.5773 94.7257 25.8021 94.4484 25.8021H92.243C91.9656 25.8021 91.7408 25.5773 91.7408 25.3V16.8917C91.7408 16.6144 91.516 16.3896 91.2387 16.3896H88.635Z" fill="white"/>
<path d="M100.286 25.8021C100.009 25.8021 99.7841 25.5773 99.7841 25.3V14.2562C99.7841 13.9788 100.009 13.754 100.286 13.754H104.962C105.852 13.754 106.631 13.9168 107.299 14.2423C107.966 14.5678 108.486 15.0365 108.857 15.6483C109.228 16.2601 109.413 16.9935 109.413 17.8485C109.413 18.7113 109.222 19.4388 108.839 20.031C108.46 20.6232 107.927 21.0703 107.24 21.3723C106.557 21.6743 105.758 21.8253 104.845 21.8253H102.254C101.977 21.8253 101.752 21.6005 101.752 21.3232V19.786C101.752 19.5087 101.977 19.2839 102.254 19.2839H104.189C104.571 19.2839 104.897 19.2369 105.167 19.1427C105.44 19.0447 105.649 18.8898 105.793 18.678C105.942 18.4662 106.016 18.1897 106.016 17.8485C106.016 17.5034 105.942 17.223 105.793 17.0073C105.649 16.7876 105.44 16.6268 105.167 16.5249C104.897 16.419 104.571 16.366 104.189 16.366H103.543C103.265 16.366 103.041 16.5908 103.041 16.8681V25.3C103.041 25.5773 102.816 25.8021 102.539 25.8021H100.286ZM106.514 20.2722C106.698 20.2722 106.867 20.3731 106.955 20.535L109.409 25.0606C109.591 25.3952 109.349 25.8021 108.968 25.8021H106.576C106.39 25.8021 106.219 25.6993 106.132 25.535L103.736 21.0093C103.558 20.6749 103.801 20.2722 104.179 20.2722H106.514Z" fill="white"/>
<path d="M113.556 13.754C113.833 13.754 114.058 13.9788 114.058 14.2562V25.3C114.058 25.5773 113.833 25.8021 113.556 25.8021H111.303C111.026 25.8021 110.801 25.5773 110.801 25.3V14.2562C110.801 13.9788 111.026 13.754 111.303 13.754H113.556Z" fill="white"/>
<path d="M122.531 17.5191C122.269 17.5191 122.064 17.3112 121.966 17.0683C121.892 16.8839 121.779 16.7282 121.628 16.6013C121.37 16.3817 120.978 16.2719 120.451 16.2719C120.115 16.2719 119.84 16.3131 119.625 16.3954C119.414 16.4739 119.258 16.5817 119.156 16.719C119.055 16.8563 119.002 17.0131 118.998 17.1896C118.99 17.3347 119.016 17.4661 119.074 17.5838C119.137 17.6975 119.234 17.8014 119.367 17.8956C119.5 17.9858 119.67 18.0681 119.877 18.1426C120.084 18.2172 120.33 18.2838 120.615 18.3427L121.599 18.5544C122.263 18.6956 122.831 18.8819 123.303 19.1133C123.776 19.3447 124.162 19.6173 124.463 19.931C124.764 20.2409 124.984 20.5899 125.125 20.9782C125.269 21.3664 125.343 21.79 125.347 22.2489C125.343 23.0411 125.146 23.7117 124.756 24.2608C124.365 24.8099 123.807 25.2275 123.081 25.5138C122.358 25.8001 121.489 25.9433 120.474 25.9433C119.432 25.9433 118.522 25.7884 117.745 25.4785C116.972 25.1687 116.37 24.6922 115.941 24.049C115.588 23.5131 115.381 22.8535 115.317 22.0701C115.295 21.7929 115.523 21.5665 115.801 21.5665H117.913C118.18 21.5665 118.391 21.7787 118.461 22.0363C118.508 22.2068 118.576 22.36 118.664 22.4959C118.828 22.7469 119.059 22.9372 119.356 23.0666C119.656 23.196 120.013 23.2607 120.427 23.2607C120.775 23.2607 121.066 23.2176 121.3 23.1313C121.534 23.045 121.712 22.9254 121.833 22.7724C121.954 22.6195 122.017 22.445 122.021 22.2489C122.017 22.0645 121.956 21.9037 121.839 21.7665C121.726 21.6253 121.538 21.4998 121.277 21.39C121.015 21.2762 120.662 21.1703 120.217 21.0723L119.022 20.8135C117.96 20.5821 117.122 20.1958 116.509 19.6545C115.9 19.1094 115.597 18.3662 115.601 17.4249C115.597 16.6602 115.8 15.9915 116.21 15.4189C116.624 14.8424 117.196 14.3933 117.926 14.0717C118.661 13.7501 119.502 13.5893 120.451 13.5893C121.419 13.5893 122.257 13.7521 122.964 14.0776C123.67 14.4031 124.215 14.862 124.598 15.4542C124.9 15.9137 125.085 16.4341 125.153 17.0156C125.186 17.292 124.957 17.5191 124.679 17.5191H122.531Z" fill="white"/>
<path d="M126.76 16.3896C126.483 16.3896 126.258 16.1648 126.258 15.8874V14.2562C126.258 13.9788 126.483 13.754 126.76 13.754H136.182C136.459 13.754 136.684 13.9788 136.684 14.2562V15.8874C136.684 16.1648 136.459 16.3896 136.182 16.3896H133.578C133.301 16.3896 133.076 16.6144 133.076 16.8917V25.3C133.076 25.5773 132.851 25.8021 132.574 25.8021H130.368C130.091 25.8021 129.866 25.5773 129.866 25.3V16.8917C129.866 16.6144 129.641 16.3896 129.364 16.3896H126.76Z" fill="white"/>
<path d="M138.411 25.8021C138.134 25.8021 137.909 25.5773 137.909 25.3V14.2562C137.909 13.9788 138.134 13.754 138.411 13.754H146.052C146.33 13.754 146.554 13.9788 146.554 14.2562V15.8874C146.554 16.1648 146.33 16.3896 146.052 16.3896H141.668C141.391 16.3896 141.166 16.6144 141.166 16.8917V17.9582C141.166 18.2355 141.391 18.4603 141.668 18.4603H145.607C145.884 18.4603 146.109 18.6851 146.109 18.9624V20.5937C146.109 20.871 145.884 21.0958 145.607 21.0958H141.668C141.391 21.0958 141.166 21.3206 141.166 21.5979V22.6645C141.166 22.9418 141.391 23.1666 141.668 23.1666H146.029C146.306 23.1666 146.531 23.3914 146.531 23.6687V25.3C146.531 25.5773 146.306 25.8021 146.029 25.8021H138.411Z" fill="white"/>
<path d="M54.4018 39.7235C54.1245 39.7235 53.8997 39.4987 53.8997 39.2214V28.3723C53.8997 28.095 54.1245 27.8702 54.4018 27.8702H59.0716C59.9609 27.8702 60.7391 28.0438 61.406 28.3911C62.073 28.7383 62.5918 29.2264 62.9623 29.8554C63.3328 30.4843 63.5181 31.2193 63.5181 32.0605C63.5181 32.9094 63.327 33.6444 62.9447 34.2656C62.5664 34.8869 62.034 35.3653 61.3475 35.701C60.6649 36.0367 59.8673 36.2046 58.9546 36.2046H56.3676C56.0903 36.2046 55.8655 35.9797 55.8655 35.7024V34.2063C55.8655 33.929 56.0903 33.7042 56.3676 33.7042H58.2993C58.6816 33.7042 59.0073 33.6386 59.2764 33.5074C59.5494 33.3724 59.7581 33.1814 59.9024 32.9345C60.0506 32.6875 60.1247 32.3962 60.1247 32.0605C60.1247 31.721 60.0506 31.4316 59.9024 31.1923C59.7581 30.9493 59.5494 30.764 59.2764 30.6367C59.0073 30.5055 58.6816 30.4399 58.2993 30.4399H57.6547C57.3774 30.4399 57.1526 30.6647 57.1526 30.942V39.2214C57.1526 39.4987 56.9278 39.7235 56.6505 39.7235H54.4018Z" fill="white"/>
<path d="M65.2138 39.7235C64.9364 39.7235 64.7116 39.4987 64.7116 39.2214V28.3723C64.7116 28.095 64.9364 27.8702 65.2138 27.8702H72.8451C73.1224 27.8702 73.3472 28.095 73.3472 28.3723V29.961C73.3472 30.2383 73.1224 30.4631 72.8451 30.4631H68.4667C68.1894 30.4631 67.9646 30.6879 67.9646 30.9652V31.9983C67.9646 32.2756 68.1894 32.5004 68.4667 32.5004H72.4004C72.6777 32.5004 72.9025 32.7252 72.9025 33.0025V34.5912C72.9025 34.8685 72.6777 35.0933 72.4004 35.0933H68.4667C68.1894 35.0933 67.9646 35.3181 67.9646 35.5954V36.6285C67.9646 36.9058 68.1894 37.1306 68.4667 37.1306H72.8217C73.099 37.1306 73.3238 37.3554 73.3238 37.6327V39.2214C73.3238 39.4987 73.099 39.7235 72.8217 39.7235H65.2138Z" fill="white"/>
<path d="M75.4626 39.7235C75.1853 39.7235 74.9605 39.4987 74.9605 39.2214V28.3723C74.9605 28.095 75.1853 27.8702 75.4626 27.8702H80.1325C81.0218 27.8702 81.7999 28.0303 82.4669 28.3505C83.1338 28.6708 83.6526 29.1319 84.0231 29.7338C84.3937 30.3357 84.5789 31.0573 84.5789 31.8984C84.5789 32.7473 84.3878 33.4631 84.0056 34.0457C83.6272 34.6283 83.0948 35.0682 82.4084 35.3653C81.7258 35.6624 80.9282 35.811 80.0155 35.811H77.4284C77.1511 35.811 76.9263 35.5862 76.9263 35.3089V33.8128C76.9263 33.5355 77.1511 33.3107 77.4284 33.3107H79.3602C79.7424 33.3107 80.0681 33.2644 80.3372 33.1718C80.6103 33.0753 80.8189 32.9229 80.9633 32.7145C81.1115 32.5062 81.1856 32.2341 81.1856 31.8984C81.1856 31.5589 81.1115 31.283 80.9633 31.0708C80.8189 30.8547 80.6103 30.6965 80.3372 30.5962C80.0681 30.492 79.7424 30.4399 79.3602 30.4399H78.7156C78.4383 30.4399 78.2135 30.6647 78.2135 30.942V39.2214C78.2135 39.4987 77.9887 39.7235 77.7113 39.7235H75.4626ZM81.6845 34.283C81.8676 34.283 82.0361 34.3826 82.1244 34.5429L84.567 38.9792C84.7512 39.3139 84.5092 39.7235 84.1271 39.7235H81.7431C81.5583 39.7235 81.3884 39.622 81.3009 39.4592L78.9155 35.0229C78.7357 34.6884 78.978 34.283 79.3578 34.283H81.6845Z" fill="white"/>
<path d="M86.4677 39.7235C86.1904 39.7235 85.9655 39.4987 85.9655 39.2214V28.3723C85.9655 28.095 86.1904 27.8702 86.4677 27.8702H94.099C94.3763 27.8702 94.6011 28.095 94.6011 28.3723V29.961C94.6011 30.2383 94.3763 30.4631 94.099 30.4631H89.7206C89.4433 30.4631 89.2185 30.6879 89.2185 30.9652V31.9983C89.2185 32.2756 89.4433 32.5004 89.7206 32.5004H93.6543C93.9316 32.5004 94.1564 32.7252 94.1564 33.0025V34.5912C94.1564 34.8685 93.9316 35.0933 93.6543 35.0933H89.7206C89.4433 35.0933 89.2185 35.3181 89.2185 35.5954V36.6285C89.2185 36.9058 89.4433 37.1306 89.7206 37.1306H94.0756C94.3529 37.1306 94.5777 37.3554 94.5777 37.6327V39.2214C94.5777 39.4987 94.3529 39.7235 94.0756 39.7235H86.4677Z" fill="white"/>
<path d="M100.825 39.7235H96.7165C96.4392 39.7235 96.2144 39.4987 96.2144 39.2214V28.3723C96.2144 28.095 96.4392 27.8702 96.7165 27.8702H100.778C102.01 27.8702 103.075 28.1075 103.972 28.5821C104.873 29.0528 105.568 29.7319 106.055 30.6194C106.547 31.503 106.792 32.5621 106.792 33.7968C106.792 35.0316 106.549 36.0927 106.061 36.9801C105.573 37.8637 104.883 38.5428 103.99 39.0174C103.097 39.4881 102.042 39.7235 100.825 39.7235ZM99.4674 36.4896C99.4674 36.7669 99.6922 36.9917 99.9695 36.9917H100.708C101.301 36.9917 101.806 36.8972 102.223 36.7081C102.644 36.519 102.964 36.193 103.183 35.73C103.405 35.2669 103.516 34.6226 103.516 33.7968C103.516 32.9711 103.403 32.3267 103.177 31.8637C102.954 31.4007 102.627 31.0747 102.194 30.8856C101.765 30.6965 101.238 30.602 100.614 30.602H99.9695C99.6922 30.602 99.4674 30.8268 99.4674 31.1041V36.4896Z" fill="white"/>
<path d="M119.905 33.7968C119.905 35.1165 119.646 36.2296 119.127 37.1364C118.608 38.0393 117.908 38.7242 117.027 39.191C116.145 39.6541 115.162 39.8856 114.078 39.8856C112.986 39.8856 111.999 39.6521 111.117 39.1853C110.24 38.7145 109.542 38.0277 109.023 37.1248C108.508 36.2181 108.251 35.1087 108.251 33.7968C108.251 32.4772 108.508 31.366 109.023 30.4631C109.542 29.5563 110.24 28.8714 111.117 28.4084C111.999 27.9415 112.986 27.7081 114.078 27.7081C115.162 27.7081 116.145 27.9415 117.027 28.4084C117.908 28.8714 118.608 29.5563 119.127 30.4631C119.646 31.366 119.905 32.4772 119.905 33.7968ZM116.559 33.7968C116.559 33.0869 116.463 32.4888 116.272 32.0026C116.085 31.5126 115.806 31.1422 115.435 30.8914C115.069 30.6367 114.616 30.5094 114.078 30.5094C113.54 30.5094 113.085 30.6367 112.715 30.8914C112.348 31.1422 112.069 31.5126 111.878 32.0026C111.691 32.4888 111.597 33.0869 111.597 33.7968C111.597 34.5068 111.691 35.1068 111.878 35.5968C112.069 36.083 112.348 36.4534 112.715 36.7081C113.085 36.9589 113.54 37.0843 114.078 37.0843C114.616 37.0843 115.069 36.9589 115.435 36.7081C115.806 36.4534 116.085 36.083 116.272 35.5968C116.463 35.1068 116.559 34.5068 116.559 33.7968Z" fill="white"/>
<path d="M55.0072 43.8767V47.9444H54.1472V43.8767H55.0072Z" fill="white"/>
<path d="M60.2358 43.8767V47.9444H59.4929L57.7232 45.3842H57.6934V47.9444H56.8334V43.8767H57.5882L59.344 46.4349H59.3797V43.8767H60.2358Z" fill="white"/>
<path d="M64.7622 45.1915C64.7344 45.0949 64.6953 45.0095 64.645 44.9353C64.5947 44.8598 64.5331 44.7963 64.4603 44.7447C64.3888 44.6917 64.3067 44.6513 64.214 44.6235C64.1226 44.5957 64.0213 44.5818 63.9101 44.5818C63.7022 44.5818 63.5195 44.6334 63.3619 44.7367C63.2057 44.84 63.0838 44.9903 62.9965 45.1876C62.9091 45.3835 62.8654 45.6232 62.8654 45.9066C62.8654 46.1899 62.9084 46.4309 62.9945 46.6295C63.0805 46.8282 63.2024 46.9798 63.3599 47.0844C63.5175 47.1877 63.7035 47.2393 63.918 47.2393C64.1127 47.2393 64.2789 47.2049 64.4166 47.136C64.5556 47.0658 64.6615 46.9672 64.7344 46.8401C64.8085 46.713 64.8456 46.5627 64.8456 46.3892L65.0204 46.415H63.9717V45.7675H65.6738V46.28C65.6738 46.6375 65.5984 46.9447 65.4474 47.2016C65.2965 47.4571 65.0886 47.6544 64.8237 47.7934C64.5589 47.9311 64.2557 48 63.9141 48C63.5327 48 63.1977 47.9159 62.9091 47.7478C62.6204 47.5783 62.3953 47.3379 62.2338 47.0268C62.0735 46.7143 61.9934 46.3435 61.9934 45.9145C61.9934 45.5848 62.0411 45.2909 62.1364 45.0326C62.2331 44.7731 62.3682 44.5533 62.5416 44.3732C62.7151 44.1932 62.917 44.0561 63.1474 43.9621C63.3778 43.8681 63.6274 43.8211 63.8962 43.8211C64.1266 43.8211 64.3411 43.8548 64.5397 43.9224C64.7383 43.9886 64.9144 44.0826 65.068 44.2044C65.223 44.3262 65.3494 44.4712 65.4474 44.6394C65.5454 44.8062 65.6083 44.9903 65.6361 45.1915H64.7622Z" fill="white"/>
<path d="M67.4385 47.9444V43.8767H70.1794V44.5858H68.2985V45.555H70.0384V46.2641H68.2985V47.2353H70.1873V47.9444H67.4385Z" fill="white"/>
<path d="M75.3841 43.8767V47.9444H74.6412L72.8716 45.3842H72.8418V47.9444H71.9817V43.8767H72.7365L74.4923 46.4349H74.528V43.8767H75.3841Z" fill="white"/>
<path d="M78.0733 43.8767V47.9444H77.2133V43.8767H78.0733Z" fill="white"/>
<path d="M79.8995 47.9444V43.8767H82.6404V44.5858H80.7595V45.555H82.4994V46.2641H80.7595V47.2353H82.6483V47.9444H79.8995Z" fill="white"/>
<path d="M84.4428 47.9444V43.8767H86.0476C86.3548 43.8767 86.617 43.9316 86.8341 44.0415C87.0526 44.1501 87.2188 44.3044 87.3327 44.5043C87.4479 44.7029 87.5055 44.9366 87.5055 45.2054C87.5055 45.4756 87.4472 45.7079 87.3307 45.9026C87.2141 46.0959 87.0453 46.2442 86.8242 46.3475C86.6044 46.4508 86.3382 46.5024 86.0257 46.5024H84.9512V45.8112H85.8867C86.0509 45.8112 86.1873 45.7887 86.2959 45.7437C86.4044 45.6987 86.4852 45.6312 86.5382 45.5411C86.5925 45.4511 86.6196 45.3392 86.6196 45.2054C86.6196 45.0704 86.5925 44.9565 86.5382 44.8638C86.4852 44.7711 86.4038 44.701 86.2939 44.6533C86.1853 44.6043 86.0483 44.5798 85.8827 44.5798H85.3028V47.9444H84.4428ZM86.6395 46.0933L87.6504 47.9444H86.701L85.7119 46.0933H86.6395Z" fill="white"/>
<path d="M92.9698 45.9105C92.9698 46.3541 92.8858 46.7315 92.7176 47.0427C92.5508 47.3538 92.323 47.5915 92.0343 47.7557C91.747 47.9186 91.4239 48 91.0651 48C90.7036 48 90.3792 47.9179 90.0919 47.7537C89.8045 47.5895 89.5774 47.3518 89.4106 47.0407C89.2438 46.7295 89.1603 46.3528 89.1603 45.9105C89.1603 45.467 89.2438 45.0896 89.4106 44.7784C89.5774 44.4672 89.8045 44.2302 90.0919 44.0674C90.3792 43.9032 90.7036 43.8211 91.0651 43.8211C91.4239 43.8211 91.747 43.9032 92.0343 44.0674C92.323 44.2302 92.5508 44.4672 92.7176 44.7784C92.8858 45.0896 92.9698 45.467 92.9698 45.9105ZM92.0979 45.9105C92.0979 45.6232 92.0549 45.3809 91.9688 45.1836C91.8841 44.9863 91.7642 44.8367 91.6093 44.7347C91.4544 44.6328 91.273 44.5818 91.0651 44.5818C90.8572 44.5818 90.6758 44.6328 90.5209 44.7347C90.366 44.8367 90.2455 44.9863 90.1594 45.1836C90.0746 45.3809 90.0323 45.6232 90.0323 45.9105C90.0323 46.1979 90.0746 46.4402 90.1594 46.6375C90.2455 46.8348 90.366 46.9844 90.5209 47.0864C90.6758 47.1883 90.8572 47.2393 91.0651 47.2393C91.273 47.2393 91.4544 47.1883 91.6093 47.0864C91.7642 46.9844 91.8841 46.8348 91.9688 46.6375C92.0549 46.4402 92.0979 46.1979 92.0979 45.9105Z" fill="white"/>
<path d="M100.728 45.3008H99.8577C99.8418 45.1882 99.8094 45.0883 99.7604 45.0009C99.7114 44.9122 99.6485 44.8367 99.5717 44.7744C99.4949 44.7122 99.4062 44.6645 99.3056 44.6314C99.2063 44.5983 99.0983 44.5818 98.9818 44.5818C98.7713 44.5818 98.5879 44.6341 98.4316 44.7387C98.2754 44.842 98.1542 44.9929 98.0682 45.1915C97.9821 45.3888 97.9391 45.6285 97.9391 45.9105C97.9391 46.2005 97.9821 46.4442 98.0682 46.6415C98.1556 46.8387 98.2774 46.9877 98.4336 47.0883C98.5899 47.189 98.7706 47.2393 98.9759 47.2393C99.0911 47.2393 99.1976 47.2241 99.2956 47.1936C99.3949 47.1632 99.483 47.1188 99.5598 47.0605C99.6366 47.001 99.7002 46.9288 99.7505 46.844C99.8021 46.7593 99.8379 46.6626 99.8577 46.5541L100.728 46.558C100.705 46.7447 100.649 46.9248 100.559 47.0983C100.47 47.2704 100.35 47.4247 100.199 47.5611C100.05 47.6961 99.871 47.8034 99.6631 47.8828C99.4565 47.9609 99.2228 48 98.962 48C98.5991 48 98.2747 47.9179 97.9887 47.7537C97.704 47.5895 97.4789 47.3518 97.3134 47.0407C97.1492 46.7295 97.0671 46.3528 97.0671 45.9105C97.0671 45.467 97.1506 45.0896 97.3174 44.7784C97.4842 44.4672 97.7107 44.2302 97.9967 44.0674C98.2827 43.9032 98.6044 43.8211 98.962 43.8211C99.1976 43.8211 99.4161 43.8542 99.6174 43.9204C99.82 43.9866 99.9994 44.0833 100.156 44.2104C100.312 44.3362 100.439 44.4904 100.537 44.6731C100.636 44.8559 100.7 45.0651 100.728 45.3008Z" fill="white"/>
<path d="M103.323 43.8767V47.9444H102.463V43.8767H103.323Z" fill="white"/>
<path d="M105.884 43.8767L106.867 46.9672H106.905L107.89 43.8767H108.844L107.441 47.9444H106.333L104.929 43.8767H105.884Z" fill="white"/>
<path d="M111.312 43.8767V47.9444H110.452V43.8767H111.312Z" fill="white"/>
<path d="M113.138 47.9444V43.8767H113.998V47.2353H115.742V47.9444H113.138Z" fill="white"/>
</svg>
